<svg width="156" height="68" viewBox="0 0 156 68" fill="none" xmlns="http://www.w3.org/2000/svg">
<path d="M44.2926 0.0822286C43.8431 0.228826 43.507 0.4927 42.6776 1.32537C40.1242 3.91134 37.4267 6.1279 33.4329 8.9367C32.1409 9.8456 31.879 10.0684 31.4687 10.5844C30.9449 11.2529 30.6176 11.9625 30.4386 12.842C30.3819 13.1176 30.3601 13.4226 30.3601 13.9796C30.3644 14.6305 30.3819 14.8182 30.4823 15.2697C30.7354 16.4131 31.1064 17.2165 31.8572 18.2544C34.2186 21.5147 36.6192 22.4471 39.404 21.1922C40.0806 20.8873 41.2591 20.0839 41.9836 19.4389C42.3328 19.1281 42.6253 18.8877 42.634 18.8994C42.6558 18.9346 42.3939 20.2188 42.2237 20.9166C41.7261 22.9162 41.0234 24.1124 39.9627 24.7692C39.7925 24.8806 39.1945 25.1386 38.6358 25.3497C36.9684 25.983 35.6153 26.6163 33.5464 27.7246C32.4508 28.3168 32.1322 28.5162 31.7743 28.8446C30.9013 29.6479 30.1986 31.0084 29.9148 32.4509C29.7577 33.2484 29.7446 34.4329 29.8887 35.1424C30.0894 36.1334 30.4168 36.8019 31.233 37.8984C33.1274 40.4492 35.2967 41.7803 37.9811 42.0383C39.356 42.1732 40.9012 41.9386 42.0666 41.4167C44.9692 40.115 46.6715 36.796 47.1167 31.5713C47.2913 29.5307 47.5226 28.3462 48.0158 27.0268C48.5789 25.4963 49.5174 24.1183 50.6522 23.1449C51.6125 22.3239 52.8434 21.6203 54.2663 21.0808L54.777 20.8814V21.3388C54.777 22.6875 54.6111 23.9189 53.9913 27.1441C53.7207 28.5514 53.5767 29.5248 53.4894 30.5158C53.306 32.5857 52.839 34.0634 51.8875 35.5705C51.2938 36.5145 50.6129 37.2651 49.2336 38.4907C44.8863 42.355 41.4075 44.9644 38.0815 46.8526C36.3748 47.8201 35.9078 48.213 35.5368 48.9577C34.8995 50.236 35.2138 51.7137 36.4534 53.3322C37.6057 54.8333 38.6052 55.2262 39.8405 54.6691C40.4778 54.3877 41.0234 53.9185 43.7121 51.3443C46.9421 48.2482 50.3161 44.6712 52.3851 42.1439C52.5946 41.8859 52.7866 41.6923 52.8084 41.7099C52.8608 41.7569 52.9438 42.226 52.9438 42.4898C52.9394 43.0469 52.7997 43.5512 52.2236 45.0289C51.8831 45.9085 51.7696 46.4655 51.8482 46.8877C52.001 47.6852 52.42 48.1837 53.4806 48.8228C54.9167 49.6848 56.4182 50.1305 57.876 50.1305C59.945 50.1246 60.8441 49.5265 61.1497 47.9315C61.2282 47.5328 61.2501 47.1809 61.2806 45.6446C61.3024 44.6419 61.3854 42.4136 61.4596 40.6896C61.5861 37.8691 61.5992 37.183 61.6123 33.9168C61.6211 31.0729 61.6385 30.0819 61.6909 29.3723C61.9179 26.4521 62.6075 23.9834 63.7642 21.9017C63.9301 21.6085 64.2225 21.116 64.4146 20.8111C65.0475 19.8201 65.2832 19.1105 65.2439 18.3424C65.1784 17.1109 64.3927 16.2314 62.6992 15.4808C60.3989 14.4663 58.3911 14.2904 56.4094 14.9413C55.3662 15.2873 54.7072 15.6626 53.1227 16.8178C51.8744 17.7267 51.3331 18.0668 50.6697 18.3658C50.2157 18.5711 49.5086 18.7997 49.4781 18.7528C49.4693 18.7411 49.4912 18.401 49.5217 17.9964C49.5523 17.5918 49.657 16.1141 49.7574 14.7126C49.98 11.5285 50.111 9.92769 50.2987 8.05711C50.5038 6.05166 50.5082 5.94025 50.4558 5.348C50.3685 4.40391 50.1808 3.76475 49.7836 3.06695C49.4039 2.39846 48.9456 1.95281 47.9286 1.26087C46.5012 0.293328 45.7985 -0.00572967 44.9779 0.000134209C44.7379 0.000134209 44.4279 0.0411814 44.2926 0.0822286ZM42.9657 9.38821C42.9963 10.2795 42.9395 12.2205 42.861 12.9535C42.5773 15.6039 41.809 16.5715 39.631 16.9995C38.4219 17.2341 37.9374 17.1989 37.4355 16.8412C36.8986 16.4542 36.353 15.3928 36.3486 14.7302C36.3486 14.2142 36.4839 14.009 37.1037 13.5926C37.2958 13.4636 38.1469 12.7424 38.9894 11.9918C40.8139 10.3675 42.8741 8.56727 42.909 8.56141C42.9264 8.55554 42.9483 8.93083 42.9657 9.38821ZM40.0849 30.1112C40.1286 30.5686 40.1155 31.4247 40.05 32.0111C39.8492 33.7761 39.081 35.0779 38.1819 35.1658C37.9025 35.1893 37.8589 35.1776 37.562 34.9782C37.3569 34.8433 37.1168 34.6146 36.9073 34.3508C36.5581 33.911 35.5935 32.4919 35.6197 32.4567C35.6284 32.445 35.803 32.2867 36.0038 32.1049C36.4228 31.7296 37.143 31.2253 37.645 30.9556C37.9462 30.7914 39.954 29.859 40.0282 29.8473C40.0456 29.8414 40.0675 29.9646 40.0849 30.1112Z" fill="#CA4157"/>
<path d="M138.656 5.30677C138.058 5.48269 137.718 5.71724 137.203 6.3095C136.452 7.17735 135.836 7.58196 134.968 7.7696C134.584 7.8517 130.795 7.86343 95.3481 7.85756C69.482 7.85756 56.0165 7.87515 55.759 7.91034C54.9777 8.02761 54.4713 8.28563 54.1527 8.71955C53.8603 9.12416 53.7599 9.46427 53.738 10.1503C53.6857 11.716 54.2269 12.1617 55.8332 11.8743C56.3308 11.7805 56.824 11.7805 61.8261 11.8333C65.6061 11.8802 68.6614 11.8802 71.7692 11.8391C76.6098 11.7688 76.6884 11.7746 77.2515 12.0737C77.9149 12.4255 78.3558 13.1175 78.6046 14.2023C78.718 14.7066 79.1065 17.3453 79.22 18.4067C79.4819 20.8461 79.399 22.2593 78.9363 23.303C78.4954 24.2882 77.7883 24.8804 76.4702 25.3554C75.6452 25.6544 74.5016 26.147 73.585 26.5927C72.0573 27.3315 69.8094 28.5102 69.4864 28.733C68.3603 29.5187 67.4393 30.9671 67.0508 32.568C66.8631 33.3244 66.8064 33.8873 66.8326 34.6966C66.885 36.2388 67.3913 37.4878 68.6047 39.0593C70.1106 41.0061 72.245 42.6187 74.2179 43.2989C75.2786 43.6624 75.9202 43.6918 77.3737 43.4455C80.5993 42.8884 82.3758 41.3521 83.5805 38.0742C83.9166 37.1535 84.0693 36.6082 84.5844 34.462C85.1911 31.9523 85.3308 31.1255 85.3308 30.0641C85.3308 29.5363 85.4399 28.4515 85.549 27.8769C85.8284 26.4461 86.4264 25.1267 87.2033 24.2295C88.1417 23.1447 89.3246 22.3531 91.3586 21.4559C92.6244 20.8988 92.511 20.9047 92.5721 21.3445C92.6419 21.796 92.6419 22.875 92.5764 23.4203C92.5502 23.6431 92.3451 24.898 92.1181 26.2115C91.8911 27.5192 91.2233 31.4362 90.6341 34.9194C90.0448 38.3967 89.3945 42.2023 89.1893 43.3692C88.8925 45.0815 88.8227 45.5799 88.8227 45.9493C88.8227 46.9521 89.1631 47.4095 90.6122 48.3535C92.3014 49.4501 93.9121 50.0189 95.6318 50.1127C96.3215 50.1479 97.2599 50.0599 97.6615 49.9251C98.4035 49.6612 98.8312 49.1158 99.0582 48.1366C99.1106 47.8962 99.1455 47.345 99.1935 45.9083C99.2241 44.8587 99.307 42.8825 99.3681 41.5104C99.4642 39.4463 99.4903 38.2794 99.5165 34.7083C99.5558 30.3162 99.5733 29.8119 99.7566 28.2873C100.101 25.4023 100.909 22.9277 102.144 20.9692C102.345 20.6526 102.598 20.2479 102.707 20.0662C103.702 18.4829 103.2 16.9583 101.337 15.8852C99.8919 15.0584 98.6043 14.6655 97.1551 14.6128C96.1905 14.5776 95.5882 14.6421 94.7676 14.8649C93.3272 15.2636 92.0483 15.9966 88.3513 18.5767C87.6965 19.0341 87.1422 19.3918 87.1247 19.3742C87.1029 19.3625 87.0505 19.1807 87.0069 18.9813C86.8803 18.4008 86.8978 17.404 87.0505 16.413C87.1422 15.8149 87.1815 15.3575 87.2077 14.5365C87.2339 13.6511 87.26 13.3931 87.3343 13.1233C87.4827 12.5956 87.6616 12.3258 88.0152 12.0913C88.4298 11.8157 87.9148 11.8215 100.411 11.8391C106.893 11.845 112.201 11.8509 112.205 11.8567C112.205 11.8626 111.69 12.8067 111.053 13.9501C109.036 17.5799 108.569 18.4946 108.028 19.8903C107.517 21.2155 107.046 22.9747 106.797 24.4758C106.671 25.2616 106.657 27.1615 106.775 28.0235C107.181 30.9261 108.15 33.6293 109.674 36.098C110.18 36.919 111.236 38.2911 111.804 38.854C113.004 40.062 114.182 40.7715 115.383 41.0237C116.19 41.1879 117.543 41.0647 118.713 40.7129C124.283 39.0534 128.962 31.747 129.547 23.8073C129.686 21.8898 129.503 19.3332 129.128 18.0783C129.062 17.8555 128.778 17.0639 128.499 16.325C127.892 14.7183 127.779 14.2961 127.779 13.5983C127.779 13.1702 127.796 13.0588 127.897 12.8067C128.098 12.2848 128.464 11.9095 128.979 11.6925C129.385 11.5225 130.433 11.5108 131.642 11.6632C132.31 11.7512 133.025 11.7981 133.693 11.8098C134.326 11.8157 134.784 11.845 134.894 11.8861C135.169 11.9975 135.339 12.1675 135.444 12.4373C135.526 12.6542 135.535 12.748 135.518 13.3286C135.496 13.8856 135.43 14.3547 135.051 16.5596C134.505 19.7143 133.641 24.9039 132.432 32.3041C131.93 35.3826 131.319 39.0886 131.079 40.5428C130.433 44.4541 130.328 45.3747 130.42 46.2484C130.551 47.5091 131.083 48.1483 132.558 48.8051C133.357 49.1628 134.702 49.6436 135.286 49.7785C136.661 50.0951 138.337 50.1948 138.909 49.9896C139.625 49.7374 140.118 49.239 140.424 48.4591C140.738 47.6499 140.825 46.9286 140.873 44.7942C140.908 43.2344 140.996 40.9416 141.157 37.4057C141.397 32.1634 141.454 30.4687 141.506 26.8214C141.546 24.1005 141.576 23.6842 141.821 22.3062C142.179 20.2773 142.855 18.1897 143.938 15.7679C144.527 14.4603 145.5 12.5193 145.688 12.2965C146.286 11.5753 147.15 11.4169 148.883 11.7219C149.786 11.8861 151.118 11.9154 151.72 11.7864C152.562 11.6104 153.047 10.9889 153.226 9.86301C153.339 9.16521 153.283 8.61987 153.069 8.29149C152.82 7.9162 152.803 7.91034 150.411 7.88688C147.726 7.85756 146.735 7.75788 145.47 7.40604C144.483 7.13044 143.789 6.81379 142.654 6.12772C142.082 5.78175 141.314 5.47096 140.686 5.32436C140.083 5.1895 139.101 5.17777 138.656 5.30677ZM120.162 12.062C120.341 12.2379 120.586 12.7715 120.751 13.352C121.288 15.2343 121.76 17.5506 122.017 19.6029C122.24 21.3621 122.419 24.1416 122.375 25.1502C122.318 26.4168 121.825 27.9296 120.93 29.5363C120.477 30.3514 119.359 31.8526 118.744 32.4683C117.495 33.7232 116.71 33.8346 115.989 32.8612C115.697 32.4683 115.383 31.8233 115.082 30.9906C114.2 28.5453 114.008 26.493 114.462 24.3761C114.828 22.6756 116.155 18.8172 117.281 16.1843C117.901 14.73 118.687 13.0412 118.944 12.6132C119.377 11.8978 119.796 11.7043 120.162 12.062ZM78.2117 29.6478C78.1637 29.8999 78.0677 30.5508 77.9978 31.102C77.6487 33.7173 77.5177 34.374 77.2078 35.0718C76.9634 35.6348 76.6535 36.0159 76.2126 36.3091C75.8678 36.5378 75.8198 36.5554 75.4924 36.5495C75.0647 36.5437 74.6413 36.3443 74.1699 35.9221C73.7989 35.5879 73.3056 34.9077 73.131 34.4737C73.0176 34.1981 73.0001 34.0926 73.0001 33.7114C73.0001 33.1016 73.1791 32.609 73.6068 32.0344C74.0215 31.4831 74.4449 31.2075 75.8722 30.5801C76.911 30.1227 77.736 29.6595 78.107 29.3252C78.1812 29.2607 78.251 29.2021 78.2641 29.2021C78.2772 29.1962 78.2554 29.4015 78.2117 29.6478Z" fill="#CA4157"/>
<path d="M3.62089 26.7862C1.77892 27.3257 0.386537 29.2783 0.0635382 31.7588C-0.106691 33.0664 0.0504437 34.0633 0.7139 35.9163C1.35553 37.6989 2.39436 39.892 3.7562 42.3314C4.42402 43.5334 4.55496 43.7328 4.60734 43.6742C4.7121 43.5569 5.87751 41.4518 6.3882 40.4608C7.83296 37.652 8.75394 35.3123 9.03329 33.7525C9.13805 33.1661 9.14678 32.3276 9.05512 31.6767C8.72775 29.3487 7.50996 27.5602 5.78148 26.8742C5.24461 26.6631 4.19268 26.6161 3.62089 26.7862ZM5.51086 30.1227C6.30526 30.6505 6.76357 31.618 6.76357 32.7732C6.76357 33.6235 6.56715 34.2626 6.12631 34.8666C5.45848 35.7755 4.44148 36.0042 3.5816 35.4354C2.48166 34.7083 2.03208 32.8495 2.60824 31.4011C2.75665 31.0199 3.23241 30.369 3.48994 30.1931C3.9046 29.9058 4.13157 29.8413 4.65535 29.8589C5.13112 29.8765 5.15731 29.8882 5.51086 30.1227Z" fill="#CA4157"/>
<path d="M150.624 36.6787C148.551 37.1772 147.045 39.4406 146.853 42.3315C146.753 43.8209 147.521 46.2075 149.175 49.5617C149.878 50.9866 151.34 53.6488 151.419 53.6488C151.458 53.6488 152.305 52.1594 152.842 51.1567C154.675 47.7028 155.762 44.9116 155.958 43.17C156.024 42.5954 155.963 41.7627 155.801 41.018C155.308 38.7428 153.924 37.0833 152.183 36.6729C151.716 36.5673 151.074 36.5673 150.624 36.6787ZM151.855 39.81C152.584 39.9918 153.256 40.7893 153.505 41.7686C153.99 43.6509 152.929 45.6681 151.449 45.6739C151.039 45.6739 150.742 45.5801 150.389 45.328C149.193 44.4953 148.835 42.4019 149.634 40.977C150.175 40.0153 150.982 39.5931 151.855 39.81Z" fill="#CA4157"/>
<path d="M19.5744 41.3698C18.9023 41.4636 18.4047 41.575 18.2781 41.6571C18.0773 41.7979 17.8591 42.0852 17.7499 42.3608C17.619 42.695 17.619 43.3752 17.7499 43.7153C17.8809 44.0496 18.1471 44.3545 18.4178 44.4718C18.6316 44.5656 18.6927 44.5715 19.1772 44.4952C19.7141 44.4131 21.5299 44.378 21.5823 44.4542C21.5997 44.4718 21.5343 44.636 21.4339 44.806C21.2025 45.2224 21.124 45.4862 21.124 45.8557C21.124 46.3306 21.2069 46.6062 21.4513 46.9463C21.6652 47.2395 21.9751 47.433 22.237 47.433C22.4029 47.433 22.7564 47.263 22.9092 47.1105C23.1056 46.917 23.4941 46.2251 23.6774 45.7325C23.9131 45.1109 23.9742 44.7415 23.9524 44.0965C23.9393 43.6157 23.9175 43.4749 23.7953 43.1348C23.5203 42.3432 22.9485 41.7861 22.1279 41.5047C21.8092 41.3991 21.6172 41.3757 20.753 41.3639C20.203 41.3522 19.6705 41.3581 19.5744 41.3698Z" fill="#CA4157"/>
<path d="M12.1104 43.3929C9.98036 44.1493 6.78093 45.4394 6.51904 45.6446C6.18295 45.9085 5.93415 46.6298 6.00399 47.134C6.10875 47.867 6.49285 48.3479 7.02537 48.4124C7.24797 48.4417 7.42257 48.3831 8.66655 47.8846C10.4212 47.1751 10.7486 47.052 12.1977 46.5183C13.5028 46.0434 13.6294 45.9554 13.8563 45.4746C14.0178 45.1169 14.0615 44.5246 13.948 44.12C13.8433 43.7623 13.5115 43.3636 13.2191 43.2463C12.9092 43.1173 12.8612 43.129 12.1104 43.3929Z" fill="#CA4157"/>
<path d="M17.2916 49.673C17.0603 49.7785 14.5461 52.3704 13.2105 53.8833C12.0625 55.185 11.8705 55.5193 11.8705 56.1702C11.8705 56.5513 11.9578 56.8562 12.1455 57.1436C12.4597 57.6244 12.87 57.7886 13.3152 57.6127C13.516 57.5365 13.647 57.4192 14.0573 56.9266C14.9564 55.8477 16.231 54.4755 17.8852 52.8102C18.2344 52.4525 18.5531 52.083 18.6098 51.9599C18.8324 51.5084 18.863 50.8985 18.684 50.4294C18.5705 50.1304 18.2475 49.7609 18.0336 49.673C17.8285 49.5909 17.488 49.5909 17.2916 49.673Z" fill="#CA4157"/>
<path d="M145.43 54.4404C142.419 54.8567 142.344 54.8684 142.122 55.0267C141.742 55.3082 141.55 55.748 141.55 56.3637C141.55 57.0439 141.847 57.5893 142.327 57.7945C142.558 57.8942 142.602 57.8883 145.688 57.472C147.408 57.2374 148.892 57.0205 148.979 56.9853C149.577 56.7683 149.922 55.7421 149.669 54.9446C149.498 54.4169 149.014 53.983 148.625 54.0064C148.564 54.0123 147.124 54.2058 145.43 54.4404Z" fill="#CA4157"/>
<path d="M135.025 55.8301C134.331 55.9239 133.004 56.0999 132.078 56.223C130.232 56.4693 130.188 56.481 129.879 56.9091C129.608 57.2844 129.516 57.9294 129.656 58.463C129.778 58.9262 130.167 59.3484 130.538 59.4247C130.673 59.454 136.221 58.7738 136.814 58.6565C137.229 58.5744 137.635 58.1405 137.753 57.6596C137.936 56.9208 137.679 56.1057 137.168 55.7832C136.88 55.6014 136.657 55.6073 135.025 55.8301Z" fill="#CA4157"/>
<path d="M123.676 57.2901C123.244 57.3488 121.917 57.513 120.73 57.6654C119.542 57.812 118.495 57.9645 118.403 57.9997C118.311 58.0348 118.15 58.1697 118.041 58.2987C117.321 59.149 117.609 60.6325 118.547 60.9257C118.757 60.9902 124.767 60.2573 125.09 60.1224C125.522 59.9523 125.88 59.3014 125.88 58.6916C125.88 58.1052 125.531 57.4543 125.116 57.2667C124.863 57.1494 124.702 57.1494 123.676 57.2901Z" fill="#CA4157"/>
<path d="M109.556 59.0143C106.234 59.413 106.334 59.3896 106.02 59.8176C105.374 60.6855 105.78 62.2453 106.684 62.3684C106.959 62.4036 112.912 61.7058 113.135 61.612C113.768 61.3422 114.099 60.3512 113.816 59.542C113.628 58.9967 113.178 58.6214 112.746 58.639C112.659 58.6448 111.223 58.8149 109.556 59.0143Z" fill="#CA4157"/>
<path d="M98.7964 60.2515C97.8623 60.357 96.5267 60.5095 95.8283 60.5857C94.4447 60.7382 94.3574 60.7675 94.0649 61.1662C93.8467 61.4536 93.755 61.7644 93.755 62.2159C93.755 62.8961 94.0431 63.4414 94.5145 63.6525C94.772 63.7698 94.628 63.7815 98.3817 63.3593C101.424 63.0192 101.337 63.0427 101.655 62.6088C102.118 61.9872 102.057 60.8906 101.533 60.3512C101.171 59.9817 101.153 59.9817 98.7964 60.2515Z" fill="#CA4157"/>
<path d="M10.8883 61.4124C10.3035 61.776 10.0721 62.6732 10.3602 63.4589C10.4562 63.7228 10.5435 63.8635 10.753 64.0688C11.853 65.1595 13.5902 65.9511 16.2571 66.5785C16.9948 66.7544 17.1999 66.7603 17.4574 66.602C18.1689 66.168 18.3697 65.0011 17.8721 64.2154C17.6495 63.8694 17.4356 63.7638 16.5714 63.5586C14.5199 63.0836 13.0489 62.4679 12.2502 61.7584C12.0538 61.5825 11.8181 61.4007 11.722 61.3538C11.4689 61.2306 11.1415 61.2541 10.8883 61.4124Z" fill="#CA4157"/>
<path d="M88.1679 61.389C87.9628 61.4184 86.6795 61.5474 85.3089 61.6822C83.8511 61.8288 82.7249 61.9637 82.5896 62.0106C82.127 62.1807 81.7865 62.7846 81.7821 63.4355C81.7778 64.2858 82.271 64.9601 82.8952 64.966C83.1789 64.966 88.8532 64.3972 89.0845 64.3444C89.1674 64.3268 89.3289 64.2447 89.4468 64.1627C90.2761 63.5528 90.1626 61.8347 89.2635 61.4184C89.0583 61.3245 88.7746 61.3187 88.1679 61.389Z" fill="#CA4157"/>
<path d="M73.6984 62.7789C71.8608 62.9431 70.7347 63.0721 70.5819 63.1249C70.1629 63.2832 69.7919 63.9517 69.7919 64.5498C69.7919 65.271 70.2545 65.9806 70.7783 66.0568C71.0315 66.0979 76.9895 65.5701 77.2165 65.4939C77.426 65.4176 77.7097 65.1538 77.845 64.9075C78.1244 64.4032 78.1069 63.6057 77.8101 63.078C77.618 62.7379 77.295 62.5443 76.9066 62.5268C76.7276 62.5209 75.2828 62.6323 73.6984 62.7789Z" fill="#CA4157"/>
<path d="M62.3499 63.7112C58.7053 63.9809 58.6703 63.9868 58.4608 64.1334C58.2295 64.2917 57.9501 64.7198 57.8847 65.013C57.8192 65.3062 57.8192 65.6815 57.8847 65.9747C57.9632 66.3382 58.2688 66.7545 58.5656 66.9011L58.8144 67.0302L60.1675 66.9305C64.6022 66.6138 65.2002 66.561 65.3966 66.4438C66.2695 65.9277 66.3045 64.2507 65.4577 63.7171C65.3355 63.635 65.1521 63.5587 65.0561 63.5411C64.9601 63.5294 63.7423 63.6056 62.3499 63.7112Z" fill="#CA4157"/>
<path d="M51.547 64.409C50.8398 64.4559 49.4606 64.5263 48.4828 64.5791C46.5187 64.6729 46.4881 64.6788 46.1869 65.0892C45.9425 65.4117 45.8552 65.7049 45.8508 66.1682C45.8508 66.52 45.8683 66.6256 45.9861 66.9012C46.1389 67.2706 46.427 67.5638 46.7151 67.6518C46.9028 67.7045 48.461 67.6459 51.6866 67.4641C53.0528 67.3879 53.2231 67.3644 53.4107 67.253C53.6857 67.0888 53.8472 66.8777 53.9738 66.52C54.0917 66.1916 54.1091 65.7401 54.0262 65.3648C53.9607 65.0658 53.6901 64.6553 53.4544 64.5028C53.1881 64.3328 52.983 64.3211 51.547 64.409Z" fill="#CA4157"/>
<path d="M22.6864 64.579C22.346 64.7021 22.0273 65.1009 21.9138 65.5465C21.7873 66.0684 21.9138 66.7897 22.1975 67.1474C22.4682 67.4875 22.6559 67.5461 23.7558 67.6341C25.1264 67.7455 26.5886 67.8276 27.9635 67.8745C29.3297 67.9214 29.4126 67.9038 29.7487 67.464C29.9321 67.2236 29.9932 67.0946 30.0499 66.819C30.2289 65.9863 29.884 65.1654 29.2686 64.9425C29.1158 64.8898 28.5004 64.837 27.3655 64.7959C25.8073 64.7314 23.5463 64.5907 23.088 64.5321C22.9789 64.5145 22.7999 64.5379 22.6864 64.579Z" fill="#CA4157"/>
<path d="M37.4527 64.9133C34.8295 64.966 34.7203 64.9719 34.5152 65.095C34.0918 65.3413 33.7775 66.0567 33.843 66.6314C33.891 67.0243 34.0787 67.4758 34.2751 67.6693C34.6505 68.0387 34.5938 68.0328 38.0289 67.9625C39.9014 67.9273 41.1978 67.8745 41.2938 67.8393C41.3811 67.8041 41.5339 67.6986 41.6299 67.6048C42.3064 66.948 42.2366 65.5993 41.5033 65.054C41.2109 64.837 41.272 64.8429 37.4527 64.9133Z" fill="#CA4157"/>
</svg>
