<svg id="Layer_1" data-name="Layer 1" xmlns="http://www.w3.org/2000/svg" viewBox="0 0 40.53 56.37"><defs><style>.cls-1{fill:#ca4157;}.cls-2{fill:#fff;}</style></defs><path class="cls-1" d="M45.7,23.45c-1.24,5.16-5.35,12.93-11.77,22.23C31.68,49,26.5,55.94,26,56.33c-.22.21-.82-.46-3.78-4.45A138.24,138.24,0,0,1,8.72,30.62c-3-6.16-3.64-9.45-2.9-13.79A20.42,20.42,0,0,1,21.63.35a24.17,24.17,0,0,1,9.6.29A20.3,20.3,0,0,1,45.79,16.57,18.24,18.24,0,0,1,45.7,23.45Z" transform="translate(-5.54 0)"/><path class="cls-2" d="M24,7a2.55,2.55,0,0,0-.91.71A36,36,0,0,1,17.8,12a4.45,4.45,0,0,0-1.11.94,2.9,2.9,0,0,0-.59,1.28,3.45,3.45,0,0,0,0,.65,2.5,2.5,0,0,0,.07.73,4.09,4.09,0,0,0,.78,1.7c1.34,1.85,2.7,2.38,4.29,1.67a7.05,7.05,0,0,0,1.46-1,4.49,4.49,0,0,1,.37-.3s-.13.75-.23,1.14A3.25,3.25,0,0,1,21.51,21a4.57,4.57,0,0,1-.75.33,22.29,22.29,0,0,0-2.89,1.35,4.27,4.27,0,0,0-1,.64,3.88,3.88,0,0,0-1.06,2.05,4.63,4.63,0,0,0,0,1.53,3.51,3.51,0,0,0,.76,1.56,5.28,5.28,0,0,0,3.84,2.36,4.85,4.85,0,0,0,2.32-.36c1.65-.74,2.62-2.62,2.87-5.59a9,9,0,0,1,.51-2.58,5.33,5.33,0,0,1,1.5-2.21,6.64,6.64,0,0,1,2.05-1.17l.29-.12v.26a16.82,16.82,0,0,1-.44,3.3,17.08,17.08,0,0,0-.29,1.92,5.91,5.91,0,0,1-.91,2.87,7.35,7.35,0,0,1-1.51,1.66,37.25,37.25,0,0,1-6.34,4.75c-1,.55-1.23.78-1.44,1.2a2.3,2.3,0,0,0,.52,2.49c.65.85,1.22,1.07,1.92.76.37-.16.68-.43,2.2-1.89a65.63,65.63,0,0,0,4.93-5.23,1.06,1.06,0,0,1,.24-.25,1.27,1.27,0,0,1,.08.44,4,4,0,0,1-.41,1.45,2,2,0,0,0-.21,1c.09.46.32.74.93,1.1a4.86,4.86,0,0,0,2.49.75c1.18,0,1.69-.35,1.87-1.25a9,9,0,0,0,.07-1.3c0-.57.06-1.84.1-2.82.07-1.6.08-2,.09-3.85,0-1.61,0-2.18,0-2.58A10.28,10.28,0,0,1,35,19.37l.37-.62a2.29,2.29,0,0,0,.47-1.4c0-.7-.48-1.2-1.44-1.63a4.83,4.83,0,0,0-3.58-.3A6.09,6.09,0,0,0,29,16.48a7.25,7.25,0,0,1-1.39.88,2.28,2.28,0,0,1-.68.22s0-.2,0-.43.07-1.07.13-1.86c.13-1.81.2-2.72.31-3.79A7.23,7.23,0,0,0,27.48,10a3,3,0,0,0-.38-1.29,3.07,3.07,0,0,0-1.06-1,2.83,2.83,0,0,0-1.68-.71A2,2,0,0,0,24,7Zm-.75,5.29a18.92,18.92,0,0,1-.06,2c-.16,1.5-.6,2.05-1.83,2.3-.69.13-1,.11-1.25-.09a1.83,1.83,0,0,1-.62-1.2c0-.3.08-.41.43-.65.11-.07.59-.48,1.07-.91,1-.92,2.21-2,2.23-2A3.71,3.71,0,0,1,23.22,12.26ZM21.58,24a5.66,5.66,0,0,1,0,1.08c-.11,1-.55,1.74-1.06,1.79-.16,0-.18,0-.35-.1a1.77,1.77,0,0,1-.37-.36,10.26,10.26,0,0,1-.73-1.08l.21-.2a5.61,5.61,0,0,1,.94-.65c.17-.09,1.31-.62,1.35-.63A.43.43,0,0,1,21.58,24Z" transform="translate(-5.54 0)"/></svg>